%TF.GenerationSoftware,KiCad,Pcbnew,7.0.10*%
%TF.CreationDate,2024-03-07T13:47:23-05:00*%
%TF.ProjectId,GPS_Breakout,4750535f-4272-4656-916b-6f75742e6b69,rev?*%
%TF.SameCoordinates,Original*%
%TF.FileFunction,Legend,Top*%
%TF.FilePolarity,Positive*%
%FSLAX46Y46*%
G04 Gerber Fmt 4.6, Leading zero omitted, Abs format (unit mm)*
G04 Created by KiCad (PCBNEW 7.0.10) date 2024-03-07 13:47:23*
%MOMM*%
%LPD*%
G01*
G04 APERTURE LIST*
%ADD10C,0.150000*%
%ADD11C,0.120000*%
%ADD12C,0.100000*%
G04 APERTURE END LIST*
D10*
X146986666Y-73959819D02*
X146986666Y-74674104D01*
X146986666Y-74674104D02*
X146939047Y-74816961D01*
X146939047Y-74816961D02*
X146843809Y-74912200D01*
X146843809Y-74912200D02*
X146700952Y-74959819D01*
X146700952Y-74959819D02*
X146605714Y-74959819D01*
X147367619Y-73959819D02*
X148034285Y-73959819D01*
X148034285Y-73959819D02*
X147605714Y-74959819D01*
X146986666Y-66339819D02*
X146986666Y-67054104D01*
X146986666Y-67054104D02*
X146939047Y-67196961D01*
X146939047Y-67196961D02*
X146843809Y-67292200D01*
X146843809Y-67292200D02*
X146700952Y-67339819D01*
X146700952Y-67339819D02*
X146605714Y-67339819D01*
X147891428Y-66339819D02*
X147700952Y-66339819D01*
X147700952Y-66339819D02*
X147605714Y-66387438D01*
X147605714Y-66387438D02*
X147558095Y-66435057D01*
X147558095Y-66435057D02*
X147462857Y-66577914D01*
X147462857Y-66577914D02*
X147415238Y-66768390D01*
X147415238Y-66768390D02*
X147415238Y-67149342D01*
X147415238Y-67149342D02*
X147462857Y-67244580D01*
X147462857Y-67244580D02*
X147510476Y-67292200D01*
X147510476Y-67292200D02*
X147605714Y-67339819D01*
X147605714Y-67339819D02*
X147796190Y-67339819D01*
X147796190Y-67339819D02*
X147891428Y-67292200D01*
X147891428Y-67292200D02*
X147939047Y-67244580D01*
X147939047Y-67244580D02*
X147986666Y-67149342D01*
X147986666Y-67149342D02*
X147986666Y-66911247D01*
X147986666Y-66911247D02*
X147939047Y-66816009D01*
X147939047Y-66816009D02*
X147891428Y-66768390D01*
X147891428Y-66768390D02*
X147796190Y-66720771D01*
X147796190Y-66720771D02*
X147605714Y-66720771D01*
X147605714Y-66720771D02*
X147510476Y-66768390D01*
X147510476Y-66768390D02*
X147462857Y-66816009D01*
X147462857Y-66816009D02*
X147415238Y-66911247D01*
X157146666Y-70574819D02*
X157146666Y-71289104D01*
X157146666Y-71289104D02*
X157099047Y-71431961D01*
X157099047Y-71431961D02*
X157003809Y-71527200D01*
X157003809Y-71527200D02*
X156860952Y-71574819D01*
X156860952Y-71574819D02*
X156765714Y-71574819D01*
X158099047Y-70574819D02*
X157622857Y-70574819D01*
X157622857Y-70574819D02*
X157575238Y-71051009D01*
X157575238Y-71051009D02*
X157622857Y-71003390D01*
X157622857Y-71003390D02*
X157718095Y-70955771D01*
X157718095Y-70955771D02*
X157956190Y-70955771D01*
X157956190Y-70955771D02*
X158051428Y-71003390D01*
X158051428Y-71003390D02*
X158099047Y-71051009D01*
X158099047Y-71051009D02*
X158146666Y-71146247D01*
X158146666Y-71146247D02*
X158146666Y-71384342D01*
X158146666Y-71384342D02*
X158099047Y-71479580D01*
X158099047Y-71479580D02*
X158051428Y-71527200D01*
X158051428Y-71527200D02*
X157956190Y-71574819D01*
X157956190Y-71574819D02*
X157718095Y-71574819D01*
X157718095Y-71574819D02*
X157622857Y-71527200D01*
X157622857Y-71527200D02*
X157575238Y-71479580D01*
X141906666Y-40094819D02*
X141906666Y-40809104D01*
X141906666Y-40809104D02*
X141859047Y-40951961D01*
X141859047Y-40951961D02*
X141763809Y-41047200D01*
X141763809Y-41047200D02*
X141620952Y-41094819D01*
X141620952Y-41094819D02*
X141525714Y-41094819D01*
X142811428Y-40428152D02*
X142811428Y-41094819D01*
X142573333Y-40047200D02*
X142335238Y-40761485D01*
X142335238Y-40761485D02*
X142954285Y-40761485D01*
X141906666Y-46019819D02*
X141906666Y-46734104D01*
X141906666Y-46734104D02*
X141859047Y-46876961D01*
X141859047Y-46876961D02*
X141763809Y-46972200D01*
X141763809Y-46972200D02*
X141620952Y-47019819D01*
X141620952Y-47019819D02*
X141525714Y-47019819D01*
X142287619Y-46019819D02*
X142906666Y-46019819D01*
X142906666Y-46019819D02*
X142573333Y-46400771D01*
X142573333Y-46400771D02*
X142716190Y-46400771D01*
X142716190Y-46400771D02*
X142811428Y-46448390D01*
X142811428Y-46448390D02*
X142859047Y-46496009D01*
X142859047Y-46496009D02*
X142906666Y-46591247D01*
X142906666Y-46591247D02*
X142906666Y-46829342D01*
X142906666Y-46829342D02*
X142859047Y-46924580D01*
X142859047Y-46924580D02*
X142811428Y-46972200D01*
X142811428Y-46972200D02*
X142716190Y-47019819D01*
X142716190Y-47019819D02*
X142430476Y-47019819D01*
X142430476Y-47019819D02*
X142335238Y-46972200D01*
X142335238Y-46972200D02*
X142287619Y-46924580D01*
X143406667Y-51787200D02*
X143549524Y-51834819D01*
X143549524Y-51834819D02*
X143787619Y-51834819D01*
X143787619Y-51834819D02*
X143882857Y-51787200D01*
X143882857Y-51787200D02*
X143930476Y-51739580D01*
X143930476Y-51739580D02*
X143978095Y-51644342D01*
X143978095Y-51644342D02*
X143978095Y-51549104D01*
X143978095Y-51549104D02*
X143930476Y-51453866D01*
X143930476Y-51453866D02*
X143882857Y-51406247D01*
X143882857Y-51406247D02*
X143787619Y-51358628D01*
X143787619Y-51358628D02*
X143597143Y-51311009D01*
X143597143Y-51311009D02*
X143501905Y-51263390D01*
X143501905Y-51263390D02*
X143454286Y-51215771D01*
X143454286Y-51215771D02*
X143406667Y-51120533D01*
X143406667Y-51120533D02*
X143406667Y-51025295D01*
X143406667Y-51025295D02*
X143454286Y-50930057D01*
X143454286Y-50930057D02*
X143501905Y-50882438D01*
X143501905Y-50882438D02*
X143597143Y-50834819D01*
X143597143Y-50834819D02*
X143835238Y-50834819D01*
X143835238Y-50834819D02*
X143978095Y-50882438D01*
X144311429Y-50834819D02*
X144549524Y-51834819D01*
X144549524Y-51834819D02*
X144740000Y-51120533D01*
X144740000Y-51120533D02*
X144930476Y-51834819D01*
X144930476Y-51834819D02*
X145168572Y-50834819D01*
X146073333Y-51834819D02*
X145501905Y-51834819D01*
X145787619Y-51834819D02*
X145787619Y-50834819D01*
X145787619Y-50834819D02*
X145692381Y-50977676D01*
X145692381Y-50977676D02*
X145597143Y-51072914D01*
X145597143Y-51072914D02*
X145501905Y-51120533D01*
X159686666Y-39669819D02*
X159686666Y-40384104D01*
X159686666Y-40384104D02*
X159639047Y-40526961D01*
X159639047Y-40526961D02*
X159543809Y-40622200D01*
X159543809Y-40622200D02*
X159400952Y-40669819D01*
X159400952Y-40669819D02*
X159305714Y-40669819D01*
X160115238Y-39765057D02*
X160162857Y-39717438D01*
X160162857Y-39717438D02*
X160258095Y-39669819D01*
X160258095Y-39669819D02*
X160496190Y-39669819D01*
X160496190Y-39669819D02*
X160591428Y-39717438D01*
X160591428Y-39717438D02*
X160639047Y-39765057D01*
X160639047Y-39765057D02*
X160686666Y-39860295D01*
X160686666Y-39860295D02*
X160686666Y-39955533D01*
X160686666Y-39955533D02*
X160639047Y-40098390D01*
X160639047Y-40098390D02*
X160067619Y-40669819D01*
X160067619Y-40669819D02*
X160686666Y-40669819D01*
X130996905Y-75604819D02*
X130996905Y-74604819D01*
X130996905Y-74604819D02*
X131235000Y-74604819D01*
X131235000Y-74604819D02*
X131377857Y-74652438D01*
X131377857Y-74652438D02*
X131473095Y-74747676D01*
X131473095Y-74747676D02*
X131520714Y-74842914D01*
X131520714Y-74842914D02*
X131568333Y-75033390D01*
X131568333Y-75033390D02*
X131568333Y-75176247D01*
X131568333Y-75176247D02*
X131520714Y-75366723D01*
X131520714Y-75366723D02*
X131473095Y-75461961D01*
X131473095Y-75461961D02*
X131377857Y-75557200D01*
X131377857Y-75557200D02*
X131235000Y-75604819D01*
X131235000Y-75604819D02*
X130996905Y-75604819D01*
X131949286Y-74700057D02*
X131996905Y-74652438D01*
X131996905Y-74652438D02*
X132092143Y-74604819D01*
X132092143Y-74604819D02*
X132330238Y-74604819D01*
X132330238Y-74604819D02*
X132425476Y-74652438D01*
X132425476Y-74652438D02*
X132473095Y-74700057D01*
X132473095Y-74700057D02*
X132520714Y-74795295D01*
X132520714Y-74795295D02*
X132520714Y-74890533D01*
X132520714Y-74890533D02*
X132473095Y-75033390D01*
X132473095Y-75033390D02*
X131901667Y-75604819D01*
X131901667Y-75604819D02*
X132520714Y-75604819D01*
X133536905Y-62904819D02*
X133536905Y-61904819D01*
X133536905Y-61904819D02*
X133775000Y-61904819D01*
X133775000Y-61904819D02*
X133917857Y-61952438D01*
X133917857Y-61952438D02*
X134013095Y-62047676D01*
X134013095Y-62047676D02*
X134060714Y-62142914D01*
X134060714Y-62142914D02*
X134108333Y-62333390D01*
X134108333Y-62333390D02*
X134108333Y-62476247D01*
X134108333Y-62476247D02*
X134060714Y-62666723D01*
X134060714Y-62666723D02*
X134013095Y-62761961D01*
X134013095Y-62761961D02*
X133917857Y-62857200D01*
X133917857Y-62857200D02*
X133775000Y-62904819D01*
X133775000Y-62904819D02*
X133536905Y-62904819D01*
X135060714Y-62904819D02*
X134489286Y-62904819D01*
X134775000Y-62904819D02*
X134775000Y-61904819D01*
X134775000Y-61904819D02*
X134679762Y-62047676D01*
X134679762Y-62047676D02*
X134584524Y-62142914D01*
X134584524Y-62142914D02*
X134489286Y-62190533D01*
X131746666Y-38399819D02*
X131746666Y-39114104D01*
X131746666Y-39114104D02*
X131699047Y-39256961D01*
X131699047Y-39256961D02*
X131603809Y-39352200D01*
X131603809Y-39352200D02*
X131460952Y-39399819D01*
X131460952Y-39399819D02*
X131365714Y-39399819D01*
X132746666Y-39399819D02*
X132175238Y-39399819D01*
X132460952Y-39399819D02*
X132460952Y-38399819D01*
X132460952Y-38399819D02*
X132365714Y-38542676D01*
X132365714Y-38542676D02*
X132270476Y-38637914D01*
X132270476Y-38637914D02*
X132175238Y-38685533D01*
X132913333Y-54684819D02*
X132580000Y-54208628D01*
X132341905Y-54684819D02*
X132341905Y-53684819D01*
X132341905Y-53684819D02*
X132722857Y-53684819D01*
X132722857Y-53684819D02*
X132818095Y-53732438D01*
X132818095Y-53732438D02*
X132865714Y-53780057D01*
X132865714Y-53780057D02*
X132913333Y-53875295D01*
X132913333Y-53875295D02*
X132913333Y-54018152D01*
X132913333Y-54018152D02*
X132865714Y-54113390D01*
X132865714Y-54113390D02*
X132818095Y-54161009D01*
X132818095Y-54161009D02*
X132722857Y-54208628D01*
X132722857Y-54208628D02*
X132341905Y-54208628D01*
X133770476Y-54018152D02*
X133770476Y-54684819D01*
X133532381Y-53637200D02*
X133294286Y-54351485D01*
X133294286Y-54351485D02*
X133913333Y-54351485D01*
X138533333Y-75004819D02*
X138200000Y-74528628D01*
X137961905Y-75004819D02*
X137961905Y-74004819D01*
X137961905Y-74004819D02*
X138342857Y-74004819D01*
X138342857Y-74004819D02*
X138438095Y-74052438D01*
X138438095Y-74052438D02*
X138485714Y-74100057D01*
X138485714Y-74100057D02*
X138533333Y-74195295D01*
X138533333Y-74195295D02*
X138533333Y-74338152D01*
X138533333Y-74338152D02*
X138485714Y-74433390D01*
X138485714Y-74433390D02*
X138438095Y-74481009D01*
X138438095Y-74481009D02*
X138342857Y-74528628D01*
X138342857Y-74528628D02*
X137961905Y-74528628D01*
X138866667Y-74004819D02*
X139485714Y-74004819D01*
X139485714Y-74004819D02*
X139152381Y-74385771D01*
X139152381Y-74385771D02*
X139295238Y-74385771D01*
X139295238Y-74385771D02*
X139390476Y-74433390D01*
X139390476Y-74433390D02*
X139438095Y-74481009D01*
X139438095Y-74481009D02*
X139485714Y-74576247D01*
X139485714Y-74576247D02*
X139485714Y-74814342D01*
X139485714Y-74814342D02*
X139438095Y-74909580D01*
X139438095Y-74909580D02*
X139390476Y-74957200D01*
X139390476Y-74957200D02*
X139295238Y-75004819D01*
X139295238Y-75004819D02*
X139009524Y-75004819D01*
X139009524Y-75004819D02*
X138914286Y-74957200D01*
X138914286Y-74957200D02*
X138866667Y-74909580D01*
X138533333Y-67384819D02*
X138200000Y-66908628D01*
X137961905Y-67384819D02*
X137961905Y-66384819D01*
X137961905Y-66384819D02*
X138342857Y-66384819D01*
X138342857Y-66384819D02*
X138438095Y-66432438D01*
X138438095Y-66432438D02*
X138485714Y-66480057D01*
X138485714Y-66480057D02*
X138533333Y-66575295D01*
X138533333Y-66575295D02*
X138533333Y-66718152D01*
X138533333Y-66718152D02*
X138485714Y-66813390D01*
X138485714Y-66813390D02*
X138438095Y-66861009D01*
X138438095Y-66861009D02*
X138342857Y-66908628D01*
X138342857Y-66908628D02*
X137961905Y-66908628D01*
X138914286Y-66480057D02*
X138961905Y-66432438D01*
X138961905Y-66432438D02*
X139057143Y-66384819D01*
X139057143Y-66384819D02*
X139295238Y-66384819D01*
X139295238Y-66384819D02*
X139390476Y-66432438D01*
X139390476Y-66432438D02*
X139438095Y-66480057D01*
X139438095Y-66480057D02*
X139485714Y-66575295D01*
X139485714Y-66575295D02*
X139485714Y-66670533D01*
X139485714Y-66670533D02*
X139438095Y-66813390D01*
X139438095Y-66813390D02*
X138866667Y-67384819D01*
X138866667Y-67384819D02*
X139485714Y-67384819D01*
X158853333Y-57224819D02*
X158520000Y-56748628D01*
X158281905Y-57224819D02*
X158281905Y-56224819D01*
X158281905Y-56224819D02*
X158662857Y-56224819D01*
X158662857Y-56224819D02*
X158758095Y-56272438D01*
X158758095Y-56272438D02*
X158805714Y-56320057D01*
X158805714Y-56320057D02*
X158853333Y-56415295D01*
X158853333Y-56415295D02*
X158853333Y-56558152D01*
X158853333Y-56558152D02*
X158805714Y-56653390D01*
X158805714Y-56653390D02*
X158758095Y-56701009D01*
X158758095Y-56701009D02*
X158662857Y-56748628D01*
X158662857Y-56748628D02*
X158281905Y-56748628D01*
X159805714Y-57224819D02*
X159234286Y-57224819D01*
X159520000Y-57224819D02*
X159520000Y-56224819D01*
X159520000Y-56224819D02*
X159424762Y-56367676D01*
X159424762Y-56367676D02*
X159329524Y-56462914D01*
X159329524Y-56462914D02*
X159234286Y-56510533D01*
D11*
%TO.C,J7*%
X146210000Y-76960000D02*
X146210000Y-76895000D01*
X147883471Y-76960000D02*
X148430000Y-76960000D01*
X146210000Y-76200000D02*
X146210000Y-75440000D01*
X146210000Y-76960000D02*
X146756529Y-76960000D01*
X148430000Y-76960000D02*
X148430000Y-76895000D01*
X146210000Y-76960000D02*
X148430000Y-76960000D01*
X146210000Y-75440000D02*
X147320000Y-75440000D01*
%TO.C,J6*%
X146210000Y-67820000D02*
X147320000Y-67820000D01*
X146210000Y-69340000D02*
X148430000Y-69340000D01*
X148430000Y-69340000D02*
X148430000Y-69275000D01*
X146210000Y-69340000D02*
X146756529Y-69340000D01*
X146210000Y-68580000D02*
X146210000Y-67820000D01*
X147883471Y-69340000D02*
X148430000Y-69340000D01*
X146210000Y-69340000D02*
X146210000Y-69275000D01*
%TO.C,J5*%
X156370000Y-74420000D02*
X156370000Y-74355000D01*
X158043471Y-74420000D02*
X158590000Y-74420000D01*
X156370000Y-73660000D02*
X156370000Y-72900000D01*
X156370000Y-74420000D02*
X156916529Y-74420000D01*
X158590000Y-74420000D02*
X158590000Y-74355000D01*
X156370000Y-74420000D02*
X158590000Y-74420000D01*
X156370000Y-72900000D02*
X157480000Y-72900000D01*
%TO.C,J4*%
X141130000Y-43940000D02*
X141130000Y-43875000D01*
X142803471Y-43940000D02*
X143350000Y-43940000D01*
X141130000Y-43180000D02*
X141130000Y-42420000D01*
X141130000Y-43940000D02*
X141676529Y-43940000D01*
X143350000Y-43940000D02*
X143350000Y-43875000D01*
X141130000Y-43940000D02*
X143350000Y-43940000D01*
X141130000Y-42420000D02*
X142240000Y-42420000D01*
%TO.C,J3*%
X141130000Y-47500000D02*
X142240000Y-47500000D01*
X141130000Y-49020000D02*
X143350000Y-49020000D01*
X143350000Y-49020000D02*
X143350000Y-48955000D01*
X141130000Y-49020000D02*
X141676529Y-49020000D01*
X141130000Y-48260000D02*
X141130000Y-47500000D01*
X142803471Y-49020000D02*
X143350000Y-49020000D01*
X141130000Y-49020000D02*
X141130000Y-48955000D01*
D10*
%TO.C,SW1*%
X147136843Y-64017094D02*
G75*
G03*
X142350000Y-64019999I-2396843J5637094D01*
G01*
X147130000Y-64020000D02*
X142350000Y-64020000D01*
D11*
%TO.C,J2*%
X160327530Y-52765000D02*
X161130000Y-52765000D01*
X158910000Y-41910000D02*
X158910000Y-41150000D01*
X158910000Y-42670000D02*
X159456529Y-42670000D01*
X158910000Y-41150000D02*
X160020000Y-41150000D01*
X158910000Y-42670000D02*
X158910000Y-52765000D01*
X161130000Y-42670000D02*
X161130000Y-52765000D01*
X158910000Y-52765000D02*
X159712470Y-52765000D01*
X160583471Y-42670000D02*
X161130000Y-42670000D01*
D12*
%TO.C,D2*%
X130925000Y-76200000D02*
G75*
G03*
X130825000Y-76200000I-50000J0D01*
G01*
X130825000Y-76200000D02*
G75*
G03*
X130925000Y-76200000I50000J0D01*
G01*
%TO.C,D1*%
X133465000Y-63500000D02*
G75*
G03*
X133365000Y-63500000I-50000J0D01*
G01*
X133365000Y-63500000D02*
G75*
G03*
X133465000Y-63500000I50000J0D01*
G01*
D11*
%TO.C,J1*%
X132387530Y-42605000D02*
X133190000Y-42605000D01*
X133190000Y-41400000D02*
X133190000Y-42605000D01*
X130970000Y-40640000D02*
X130970000Y-39880000D01*
X130970000Y-42605000D02*
X131772470Y-42605000D01*
X130970000Y-41400000D02*
X130970000Y-42605000D01*
X130970000Y-39880000D02*
X132080000Y-39880000D01*
X130970000Y-41400000D02*
X131516529Y-41400000D01*
X132643471Y-41400000D02*
X133190000Y-41400000D01*
%TO.C,R4*%
X132852936Y-55145000D02*
X133307064Y-55145000D01*
X132852936Y-56615000D02*
X133307064Y-56615000D01*
%TO.C,R3*%
X138472936Y-75465000D02*
X138927064Y-75465000D01*
X138472936Y-76935000D02*
X138927064Y-76935000D01*
%TO.C,R2*%
X138472936Y-67845000D02*
X138927064Y-67845000D01*
X138472936Y-69315000D02*
X138927064Y-69315000D01*
%TO.C,R1*%
X158792936Y-59155000D02*
X159247064Y-59155000D01*
X158792936Y-57685000D02*
X159247064Y-57685000D01*
%TD*%
M02*
