%TF.GenerationSoftware,KiCad,Pcbnew,7.0.10*%
%TF.CreationDate,2024-03-07T13:47:23-05:00*%
%TF.ProjectId,GPS_Breakout,4750535f-4272-4656-916b-6f75742e6b69,rev?*%
%TF.SameCoordinates,Original*%
%TF.FileFunction,Copper,L1,Top*%
%TF.FilePolarity,Positive*%
%FSLAX46Y46*%
G04 Gerber Fmt 4.6, Leading zero omitted, Abs format (unit mm)*
G04 Created by KiCad (PCBNEW 7.0.10) date 2024-03-07 13:47:23*
%MOMM*%
%LPD*%
G01*
G04 APERTURE LIST*
G04 Aperture macros list*
%AMRoundRect*
0 Rectangle with rounded corners*
0 $1 Rounding radius*
0 $2 $3 $4 $5 $6 $7 $8 $9 X,Y pos of 4 corners*
0 Add a 4 corners polygon primitive as box body*
4,1,4,$2,$3,$4,$5,$6,$7,$8,$9,$2,$3,0*
0 Add four circle primitives for the rounded corners*
1,1,$1+$1,$2,$3*
1,1,$1+$1,$4,$5*
1,1,$1+$1,$6,$7*
1,1,$1+$1,$8,$9*
0 Add four rect primitives between the rounded corners*
20,1,$1+$1,$2,$3,$4,$5,0*
20,1,$1+$1,$4,$5,$6,$7,0*
20,1,$1+$1,$6,$7,$8,$9,0*
20,1,$1+$1,$8,$9,$2,$3,0*%
G04 Aperture macros list end*
%ADD10C,0.300000*%
%TA.AperFunction,NonConductor*%
%ADD11C,0.300000*%
%TD*%
%TA.AperFunction,NonConductor*%
%ADD12C,0.200000*%
%TD*%
%TA.AperFunction,ComponentPad*%
%ADD13R,1.000000X1.000000*%
%TD*%
%TA.AperFunction,ComponentPad*%
%ADD14C,2.000000*%
%TD*%
%TA.AperFunction,ComponentPad*%
%ADD15O,1.000000X1.000000*%
%TD*%
%TA.AperFunction,SMDPad,CuDef*%
%ADD16RoundRect,0.100000X-0.130000X-0.100000X0.130000X-0.100000X0.130000X0.100000X-0.130000X0.100000X0*%
%TD*%
%TA.AperFunction,SMDPad,CuDef*%
%ADD17RoundRect,0.250000X-0.350000X-0.450000X0.350000X-0.450000X0.350000X0.450000X-0.350000X0.450000X0*%
%TD*%
%TA.AperFunction,Conductor*%
%ADD18C,0.250000*%
%TD*%
G04 APERTURE END LIST*
D10*
D11*
X166808082Y-63669400D02*
X167022368Y-63740828D01*
X167022368Y-63740828D02*
X167379510Y-63740828D01*
X167379510Y-63740828D02*
X167522368Y-63669400D01*
X167522368Y-63669400D02*
X167593796Y-63597971D01*
X167593796Y-63597971D02*
X167665225Y-63455114D01*
X167665225Y-63455114D02*
X167665225Y-63312257D01*
X167665225Y-63312257D02*
X167593796Y-63169400D01*
X167593796Y-63169400D02*
X167522368Y-63097971D01*
X167522368Y-63097971D02*
X167379510Y-63026542D01*
X167379510Y-63026542D02*
X167093796Y-62955114D01*
X167093796Y-62955114D02*
X166950939Y-62883685D01*
X166950939Y-62883685D02*
X166879510Y-62812257D01*
X166879510Y-62812257D02*
X166808082Y-62669400D01*
X166808082Y-62669400D02*
X166808082Y-62526542D01*
X166808082Y-62526542D02*
X166879510Y-62383685D01*
X166879510Y-62383685D02*
X166950939Y-62312257D01*
X166950939Y-62312257D02*
X167093796Y-62240828D01*
X167093796Y-62240828D02*
X167450939Y-62240828D01*
X167450939Y-62240828D02*
X167665225Y-62312257D01*
X168879510Y-63669400D02*
X168736653Y-63740828D01*
X168736653Y-63740828D02*
X168450939Y-63740828D01*
X168450939Y-63740828D02*
X168308081Y-63669400D01*
X168308081Y-63669400D02*
X168236653Y-63526542D01*
X168236653Y-63526542D02*
X168236653Y-62955114D01*
X168236653Y-62955114D02*
X168308081Y-62812257D01*
X168308081Y-62812257D02*
X168450939Y-62740828D01*
X168450939Y-62740828D02*
X168736653Y-62740828D01*
X168736653Y-62740828D02*
X168879510Y-62812257D01*
X168879510Y-62812257D02*
X168950939Y-62955114D01*
X168950939Y-62955114D02*
X168950939Y-63097971D01*
X168950939Y-63097971D02*
X168236653Y-63240828D01*
X169593795Y-62740828D02*
X169593795Y-63740828D01*
X169593795Y-62883685D02*
X169665224Y-62812257D01*
X169665224Y-62812257D02*
X169808081Y-62740828D01*
X169808081Y-62740828D02*
X170022367Y-62740828D01*
X170022367Y-62740828D02*
X170165224Y-62812257D01*
X170165224Y-62812257D02*
X170236653Y-62955114D01*
X170236653Y-62955114D02*
X170236653Y-63740828D01*
X170950938Y-63740828D02*
X170950938Y-62740828D01*
X170950938Y-62240828D02*
X170879510Y-62312257D01*
X170879510Y-62312257D02*
X170950938Y-62383685D01*
X170950938Y-62383685D02*
X171022367Y-62312257D01*
X171022367Y-62312257D02*
X170950938Y-62240828D01*
X170950938Y-62240828D02*
X170950938Y-62383685D01*
X171879510Y-63740828D02*
X171736653Y-63669400D01*
X171736653Y-63669400D02*
X171665224Y-63597971D01*
X171665224Y-63597971D02*
X171593796Y-63455114D01*
X171593796Y-63455114D02*
X171593796Y-63026542D01*
X171593796Y-63026542D02*
X171665224Y-62883685D01*
X171665224Y-62883685D02*
X171736653Y-62812257D01*
X171736653Y-62812257D02*
X171879510Y-62740828D01*
X171879510Y-62740828D02*
X172093796Y-62740828D01*
X172093796Y-62740828D02*
X172236653Y-62812257D01*
X172236653Y-62812257D02*
X172308082Y-62883685D01*
X172308082Y-62883685D02*
X172379510Y-63026542D01*
X172379510Y-63026542D02*
X172379510Y-63455114D01*
X172379510Y-63455114D02*
X172308082Y-63597971D01*
X172308082Y-63597971D02*
X172236653Y-63669400D01*
X172236653Y-63669400D02*
X172093796Y-63740828D01*
X172093796Y-63740828D02*
X171879510Y-63740828D01*
X173022367Y-63740828D02*
X173022367Y-62740828D01*
X173022367Y-63026542D02*
X173093796Y-62883685D01*
X173093796Y-62883685D02*
X173165225Y-62812257D01*
X173165225Y-62812257D02*
X173308082Y-62740828D01*
X173308082Y-62740828D02*
X173450939Y-62740828D01*
X166879510Y-66155828D02*
X166879510Y-64655828D01*
X166879510Y-64655828D02*
X167236653Y-64655828D01*
X167236653Y-64655828D02*
X167450939Y-64727257D01*
X167450939Y-64727257D02*
X167593796Y-64870114D01*
X167593796Y-64870114D02*
X167665225Y-65012971D01*
X167665225Y-65012971D02*
X167736653Y-65298685D01*
X167736653Y-65298685D02*
X167736653Y-65512971D01*
X167736653Y-65512971D02*
X167665225Y-65798685D01*
X167665225Y-65798685D02*
X167593796Y-65941542D01*
X167593796Y-65941542D02*
X167450939Y-66084400D01*
X167450939Y-66084400D02*
X167236653Y-66155828D01*
X167236653Y-66155828D02*
X166879510Y-66155828D01*
X168950939Y-66084400D02*
X168808082Y-66155828D01*
X168808082Y-66155828D02*
X168522368Y-66155828D01*
X168522368Y-66155828D02*
X168379510Y-66084400D01*
X168379510Y-66084400D02*
X168308082Y-65941542D01*
X168308082Y-65941542D02*
X168308082Y-65370114D01*
X168308082Y-65370114D02*
X168379510Y-65227257D01*
X168379510Y-65227257D02*
X168522368Y-65155828D01*
X168522368Y-65155828D02*
X168808082Y-65155828D01*
X168808082Y-65155828D02*
X168950939Y-65227257D01*
X168950939Y-65227257D02*
X169022368Y-65370114D01*
X169022368Y-65370114D02*
X169022368Y-65512971D01*
X169022368Y-65512971D02*
X168308082Y-65655828D01*
X169593796Y-66084400D02*
X169736653Y-66155828D01*
X169736653Y-66155828D02*
X170022367Y-66155828D01*
X170022367Y-66155828D02*
X170165224Y-66084400D01*
X170165224Y-66084400D02*
X170236653Y-65941542D01*
X170236653Y-65941542D02*
X170236653Y-65870114D01*
X170236653Y-65870114D02*
X170165224Y-65727257D01*
X170165224Y-65727257D02*
X170022367Y-65655828D01*
X170022367Y-65655828D02*
X169808082Y-65655828D01*
X169808082Y-65655828D02*
X169665224Y-65584400D01*
X169665224Y-65584400D02*
X169593796Y-65441542D01*
X169593796Y-65441542D02*
X169593796Y-65370114D01*
X169593796Y-65370114D02*
X169665224Y-65227257D01*
X169665224Y-65227257D02*
X169808082Y-65155828D01*
X169808082Y-65155828D02*
X170022367Y-65155828D01*
X170022367Y-65155828D02*
X170165224Y-65227257D01*
X170879510Y-66155828D02*
X170879510Y-65155828D01*
X170879510Y-64655828D02*
X170808082Y-64727257D01*
X170808082Y-64727257D02*
X170879510Y-64798685D01*
X170879510Y-64798685D02*
X170950939Y-64727257D01*
X170950939Y-64727257D02*
X170879510Y-64655828D01*
X170879510Y-64655828D02*
X170879510Y-64798685D01*
X172236654Y-65155828D02*
X172236654Y-66370114D01*
X172236654Y-66370114D02*
X172165225Y-66512971D01*
X172165225Y-66512971D02*
X172093796Y-66584400D01*
X172093796Y-66584400D02*
X171950939Y-66655828D01*
X171950939Y-66655828D02*
X171736654Y-66655828D01*
X171736654Y-66655828D02*
X171593796Y-66584400D01*
X172236654Y-66084400D02*
X172093796Y-66155828D01*
X172093796Y-66155828D02*
X171808082Y-66155828D01*
X171808082Y-66155828D02*
X171665225Y-66084400D01*
X171665225Y-66084400D02*
X171593796Y-66012971D01*
X171593796Y-66012971D02*
X171522368Y-65870114D01*
X171522368Y-65870114D02*
X171522368Y-65441542D01*
X171522368Y-65441542D02*
X171593796Y-65298685D01*
X171593796Y-65298685D02*
X171665225Y-65227257D01*
X171665225Y-65227257D02*
X171808082Y-65155828D01*
X171808082Y-65155828D02*
X172093796Y-65155828D01*
X172093796Y-65155828D02*
X172236654Y-65227257D01*
X172950939Y-65155828D02*
X172950939Y-66155828D01*
X172950939Y-65298685D02*
X173022368Y-65227257D01*
X173022368Y-65227257D02*
X173165225Y-65155828D01*
X173165225Y-65155828D02*
X173379511Y-65155828D01*
X173379511Y-65155828D02*
X173522368Y-65227257D01*
X173522368Y-65227257D02*
X173593797Y-65370114D01*
X173593797Y-65370114D02*
X173593797Y-66155828D01*
X166665225Y-67070828D02*
X167522368Y-67070828D01*
X167093796Y-68570828D02*
X167093796Y-67070828D01*
X168593796Y-68499400D02*
X168450939Y-68570828D01*
X168450939Y-68570828D02*
X168165225Y-68570828D01*
X168165225Y-68570828D02*
X168022367Y-68499400D01*
X168022367Y-68499400D02*
X167950939Y-68356542D01*
X167950939Y-68356542D02*
X167950939Y-67785114D01*
X167950939Y-67785114D02*
X168022367Y-67642257D01*
X168022367Y-67642257D02*
X168165225Y-67570828D01*
X168165225Y-67570828D02*
X168450939Y-67570828D01*
X168450939Y-67570828D02*
X168593796Y-67642257D01*
X168593796Y-67642257D02*
X168665225Y-67785114D01*
X168665225Y-67785114D02*
X168665225Y-67927971D01*
X168665225Y-67927971D02*
X167950939Y-68070828D01*
X169950939Y-68570828D02*
X169950939Y-67785114D01*
X169950939Y-67785114D02*
X169879510Y-67642257D01*
X169879510Y-67642257D02*
X169736653Y-67570828D01*
X169736653Y-67570828D02*
X169450939Y-67570828D01*
X169450939Y-67570828D02*
X169308081Y-67642257D01*
X169950939Y-68499400D02*
X169808081Y-68570828D01*
X169808081Y-68570828D02*
X169450939Y-68570828D01*
X169450939Y-68570828D02*
X169308081Y-68499400D01*
X169308081Y-68499400D02*
X169236653Y-68356542D01*
X169236653Y-68356542D02*
X169236653Y-68213685D01*
X169236653Y-68213685D02*
X169308081Y-68070828D01*
X169308081Y-68070828D02*
X169450939Y-67999400D01*
X169450939Y-67999400D02*
X169808081Y-67999400D01*
X169808081Y-67999400D02*
X169950939Y-67927971D01*
X170665224Y-68570828D02*
X170665224Y-67570828D01*
X170665224Y-67713685D02*
X170736653Y-67642257D01*
X170736653Y-67642257D02*
X170879510Y-67570828D01*
X170879510Y-67570828D02*
X171093796Y-67570828D01*
X171093796Y-67570828D02*
X171236653Y-67642257D01*
X171236653Y-67642257D02*
X171308082Y-67785114D01*
X171308082Y-67785114D02*
X171308082Y-68570828D01*
X171308082Y-67785114D02*
X171379510Y-67642257D01*
X171379510Y-67642257D02*
X171522367Y-67570828D01*
X171522367Y-67570828D02*
X171736653Y-67570828D01*
X171736653Y-67570828D02*
X171879510Y-67642257D01*
X171879510Y-67642257D02*
X171950939Y-67785114D01*
X171950939Y-67785114D02*
X171950939Y-68570828D01*
X167522368Y-69985828D02*
X167522368Y-70985828D01*
X167165225Y-69414400D02*
X166808082Y-70485828D01*
X166808082Y-70485828D02*
X167736653Y-70485828D01*
X166808082Y-73329400D02*
X167022368Y-73400828D01*
X167022368Y-73400828D02*
X167379510Y-73400828D01*
X167379510Y-73400828D02*
X167522368Y-73329400D01*
X167522368Y-73329400D02*
X167593796Y-73257971D01*
X167593796Y-73257971D02*
X167665225Y-73115114D01*
X167665225Y-73115114D02*
X167665225Y-72972257D01*
X167665225Y-72972257D02*
X167593796Y-72829400D01*
X167593796Y-72829400D02*
X167522368Y-72757971D01*
X167522368Y-72757971D02*
X167379510Y-72686542D01*
X167379510Y-72686542D02*
X167093796Y-72615114D01*
X167093796Y-72615114D02*
X166950939Y-72543685D01*
X166950939Y-72543685D02*
X166879510Y-72472257D01*
X166879510Y-72472257D02*
X166808082Y-72329400D01*
X166808082Y-72329400D02*
X166808082Y-72186542D01*
X166808082Y-72186542D02*
X166879510Y-72043685D01*
X166879510Y-72043685D02*
X166950939Y-71972257D01*
X166950939Y-71972257D02*
X167093796Y-71900828D01*
X167093796Y-71900828D02*
X167450939Y-71900828D01*
X167450939Y-71900828D02*
X167665225Y-71972257D01*
X168308081Y-72400828D02*
X168308081Y-73900828D01*
X168308081Y-72472257D02*
X168450939Y-72400828D01*
X168450939Y-72400828D02*
X168736653Y-72400828D01*
X168736653Y-72400828D02*
X168879510Y-72472257D01*
X168879510Y-72472257D02*
X168950939Y-72543685D01*
X168950939Y-72543685D02*
X169022367Y-72686542D01*
X169022367Y-72686542D02*
X169022367Y-73115114D01*
X169022367Y-73115114D02*
X168950939Y-73257971D01*
X168950939Y-73257971D02*
X168879510Y-73329400D01*
X168879510Y-73329400D02*
X168736653Y-73400828D01*
X168736653Y-73400828D02*
X168450939Y-73400828D01*
X168450939Y-73400828D02*
X168308081Y-73329400D01*
X169665224Y-73400828D02*
X169665224Y-72400828D01*
X169665224Y-72686542D02*
X169736653Y-72543685D01*
X169736653Y-72543685D02*
X169808082Y-72472257D01*
X169808082Y-72472257D02*
X169950939Y-72400828D01*
X169950939Y-72400828D02*
X170093796Y-72400828D01*
X170593795Y-73400828D02*
X170593795Y-72400828D01*
X170593795Y-71900828D02*
X170522367Y-71972257D01*
X170522367Y-71972257D02*
X170593795Y-72043685D01*
X170593795Y-72043685D02*
X170665224Y-71972257D01*
X170665224Y-71972257D02*
X170593795Y-71900828D01*
X170593795Y-71900828D02*
X170593795Y-72043685D01*
X171308081Y-72400828D02*
X171308081Y-73400828D01*
X171308081Y-72543685D02*
X171379510Y-72472257D01*
X171379510Y-72472257D02*
X171522367Y-72400828D01*
X171522367Y-72400828D02*
X171736653Y-72400828D01*
X171736653Y-72400828D02*
X171879510Y-72472257D01*
X171879510Y-72472257D02*
X171950939Y-72615114D01*
X171950939Y-72615114D02*
X171950939Y-73400828D01*
X173308082Y-72400828D02*
X173308082Y-73615114D01*
X173308082Y-73615114D02*
X173236653Y-73757971D01*
X173236653Y-73757971D02*
X173165224Y-73829400D01*
X173165224Y-73829400D02*
X173022367Y-73900828D01*
X173022367Y-73900828D02*
X172808082Y-73900828D01*
X172808082Y-73900828D02*
X172665224Y-73829400D01*
X173308082Y-73329400D02*
X173165224Y-73400828D01*
X173165224Y-73400828D02*
X172879510Y-73400828D01*
X172879510Y-73400828D02*
X172736653Y-73329400D01*
X172736653Y-73329400D02*
X172665224Y-73257971D01*
X172665224Y-73257971D02*
X172593796Y-73115114D01*
X172593796Y-73115114D02*
X172593796Y-72686542D01*
X172593796Y-72686542D02*
X172665224Y-72543685D01*
X172665224Y-72543685D02*
X172736653Y-72472257D01*
X172736653Y-72472257D02*
X172879510Y-72400828D01*
X172879510Y-72400828D02*
X173165224Y-72400828D01*
X173165224Y-72400828D02*
X173308082Y-72472257D01*
X166808082Y-74458685D02*
X166879510Y-74387257D01*
X166879510Y-74387257D02*
X167022368Y-74315828D01*
X167022368Y-74315828D02*
X167379510Y-74315828D01*
X167379510Y-74315828D02*
X167522368Y-74387257D01*
X167522368Y-74387257D02*
X167593796Y-74458685D01*
X167593796Y-74458685D02*
X167665225Y-74601542D01*
X167665225Y-74601542D02*
X167665225Y-74744400D01*
X167665225Y-74744400D02*
X167593796Y-74958685D01*
X167593796Y-74958685D02*
X166736653Y-75815828D01*
X166736653Y-75815828D02*
X167665225Y-75815828D01*
X168593796Y-74315828D02*
X168736653Y-74315828D01*
X168736653Y-74315828D02*
X168879510Y-74387257D01*
X168879510Y-74387257D02*
X168950939Y-74458685D01*
X168950939Y-74458685D02*
X169022367Y-74601542D01*
X169022367Y-74601542D02*
X169093796Y-74887257D01*
X169093796Y-74887257D02*
X169093796Y-75244400D01*
X169093796Y-75244400D02*
X169022367Y-75530114D01*
X169022367Y-75530114D02*
X168950939Y-75672971D01*
X168950939Y-75672971D02*
X168879510Y-75744400D01*
X168879510Y-75744400D02*
X168736653Y-75815828D01*
X168736653Y-75815828D02*
X168593796Y-75815828D01*
X168593796Y-75815828D02*
X168450939Y-75744400D01*
X168450939Y-75744400D02*
X168379510Y-75672971D01*
X168379510Y-75672971D02*
X168308081Y-75530114D01*
X168308081Y-75530114D02*
X168236653Y-75244400D01*
X168236653Y-75244400D02*
X168236653Y-74887257D01*
X168236653Y-74887257D02*
X168308081Y-74601542D01*
X168308081Y-74601542D02*
X168379510Y-74458685D01*
X168379510Y-74458685D02*
X168450939Y-74387257D01*
X168450939Y-74387257D02*
X168593796Y-74315828D01*
X169665224Y-74458685D02*
X169736652Y-74387257D01*
X169736652Y-74387257D02*
X169879510Y-74315828D01*
X169879510Y-74315828D02*
X170236652Y-74315828D01*
X170236652Y-74315828D02*
X170379510Y-74387257D01*
X170379510Y-74387257D02*
X170450938Y-74458685D01*
X170450938Y-74458685D02*
X170522367Y-74601542D01*
X170522367Y-74601542D02*
X170522367Y-74744400D01*
X170522367Y-74744400D02*
X170450938Y-74958685D01*
X170450938Y-74958685D02*
X169593795Y-75815828D01*
X169593795Y-75815828D02*
X170522367Y-75815828D01*
X171808081Y-74815828D02*
X171808081Y-75815828D01*
X171450938Y-74244400D02*
X171093795Y-75315828D01*
X171093795Y-75315828D02*
X172022366Y-75315828D01*
D12*
X165100000Y-60960000D02*
X175260000Y-60960000D01*
X175260000Y-76200000D01*
X165100000Y-76200000D01*
X165100000Y-60960000D01*
D13*
%TO.P,J7,1,Pin_1*%
%TO.N,Net-(J7-Pin_1)*%
X147320000Y-76200000D03*
%TD*%
%TO.P,J6,1,Pin_1*%
%TO.N,Net-(J6-Pin_1)*%
X147320000Y-68580000D03*
%TD*%
%TO.P,J5,1,Pin_1*%
%TO.N,Net-(J5-Pin_1)*%
X157480000Y-73660000D03*
%TD*%
%TO.P,J4,1,Pin_1*%
%TO.N,Net-(J2-Pin_5)*%
X142240000Y-43180000D03*
%TD*%
%TO.P,J3,1,Pin_1*%
%TO.N,Net-(J2-Pin_6)*%
X142240000Y-48260000D03*
%TD*%
D14*
%TO.P,SW1,4,4*%
%TO.N,unconnected-(SW1-Pad4)*%
X147240000Y-60880000D03*
%TO.P,SW1,3,3*%
%TO.N,Net-(J1-Pin_1)*%
X142240000Y-60880000D03*
%TO.P,SW1,2,2*%
%TO.N,Net-(R1-Pad2)*%
X147240000Y-55880000D03*
%TO.P,SW1,1,1*%
%TO.N,Net-(R4-Pad2)*%
X142240000Y-55880000D03*
%TD*%
D15*
%TO.P,J2,9,Pin_9*%
%TO.N,unconnected-(J2-Pin_9-Pad9)*%
X160020000Y-52070000D03*
%TO.P,J2,8,Pin_8*%
%TO.N,Net-(J1-Pin_1)*%
X160020000Y-50800000D03*
%TO.P,J2,7,Pin_7*%
%TO.N,Net-(D1-K)*%
X160020000Y-49530000D03*
%TO.P,J2,6,Pin_6*%
%TO.N,Net-(J2-Pin_6)*%
X160020000Y-48260000D03*
%TO.P,J2,5,Pin_5*%
%TO.N,Net-(J2-Pin_5)*%
X160020000Y-46990000D03*
%TO.P,J2,4,Pin_4*%
%TO.N,unconnected-(J2-Pin_4-Pad4)*%
X160020000Y-45720000D03*
%TO.P,J2,3,Pin_3*%
%TO.N,unconnected-(J2-Pin_3-Pad3)*%
X160020000Y-44450000D03*
%TO.P,J2,2,Pin_2*%
%TO.N,unconnected-(J2-Pin_2-Pad2)*%
X160020000Y-43180000D03*
D13*
%TO.P,J2,1,Pin_1*%
%TO.N,unconnected-(J2-Pin_1-Pad1)*%
X160020000Y-41910000D03*
%TD*%
D16*
%TO.P,D2,1,K*%
%TO.N,Net-(D1-K)*%
X131415000Y-76200000D03*
%TO.P,D2,2,A*%
%TO.N,Net-(D2-A)*%
X132055000Y-76200000D03*
%TD*%
%TO.P,D1,2,A*%
%TO.N,Net-(D1-A)*%
X134595000Y-63500000D03*
%TO.P,D1,1,K*%
%TO.N,Net-(D1-K)*%
X133955000Y-63500000D03*
%TD*%
D15*
%TO.P,J1,2,Pin_2*%
%TO.N,Net-(D1-K)*%
X132080000Y-41910000D03*
D13*
%TO.P,J1,1,Pin_1*%
%TO.N,Net-(J1-Pin_1)*%
X132080000Y-40640000D03*
%TD*%
D17*
%TO.P,R4,1*%
%TO.N,Net-(D1-K)*%
X132080000Y-55880000D03*
%TO.P,R4,2*%
%TO.N,Net-(R4-Pad2)*%
X134080000Y-55880000D03*
%TD*%
%TO.P,R3,1*%
%TO.N,Net-(D2-A)*%
X137700000Y-76200000D03*
%TO.P,R3,2*%
%TO.N,Net-(J7-Pin_1)*%
X139700000Y-76200000D03*
%TD*%
%TO.P,R2,1*%
%TO.N,Net-(D1-A)*%
X137700000Y-68580000D03*
%TO.P,R2,2*%
%TO.N,Net-(J6-Pin_1)*%
X139700000Y-68580000D03*
%TD*%
%TO.P,R1,2*%
%TO.N,Net-(R1-Pad2)*%
X160020000Y-58420000D03*
%TO.P,R1,1*%
%TO.N,Net-(J5-Pin_1)*%
X158020000Y-58420000D03*
%TD*%
D18*
%TO.N,Net-(R4-Pad2)*%
X142240000Y-55880000D02*
X134080000Y-55880000D01*
%TO.N,Net-(J1-Pin_1)*%
X160020000Y-50800000D02*
X144890000Y-50800000D01*
X144890000Y-50800000D02*
X143565000Y-52125000D01*
%TO.N,Net-(J2-Pin_6)*%
X142240000Y-48260000D02*
X160020000Y-48260000D01*
%TO.N,Net-(R1-Pad2)*%
X150178198Y-56198198D02*
X149860000Y-55880000D01*
X149860000Y-55880000D02*
X147240000Y-55880000D01*
%TO.N,Net-(D1-K)*%
X132080000Y-55880000D02*
X138405000Y-62205000D01*
X138405000Y-62205000D02*
X157570000Y-62205000D01*
X157570000Y-62205000D02*
X156655000Y-63120000D01*
X160945000Y-71845000D02*
X160945000Y-50455000D01*
X156655000Y-63120000D02*
X156655000Y-74485000D01*
X160945000Y-50455000D02*
X160020000Y-49530000D01*
X156655000Y-74485000D02*
X158305000Y-74485000D01*
X158305000Y-74485000D02*
X160945000Y-71845000D01*
%TO.N,Net-(R1-Pad2)*%
X160020000Y-58420000D02*
X160020000Y-57720000D01*
X160020000Y-57720000D02*
X158498198Y-56198198D01*
X158498198Y-56198198D02*
X150178198Y-56198198D01*
%TO.N,Net-(J5-Pin_1)*%
X158020000Y-58420000D02*
X158020000Y-73120000D01*
X158020000Y-73120000D02*
X157480000Y-73660000D01*
%TO.N,Net-(J7-Pin_1)*%
X139700000Y-76200000D02*
X147320000Y-76200000D01*
%TO.N,Net-(D1-K)*%
X136250000Y-76725000D02*
X136775000Y-76200000D01*
X131740001Y-76725000D02*
X136250000Y-76725000D01*
X131415000Y-76399999D02*
X131740001Y-76725000D01*
X131415000Y-76200000D02*
X131415000Y-76399999D01*
%TO.N,Net-(J6-Pin_1)*%
X139700000Y-68580000D02*
X147320000Y-68580000D01*
%TO.N,Net-(D1-A)*%
X137700000Y-68580000D02*
X137160000Y-68580000D01*
X134595000Y-63500000D02*
X134595000Y-65475000D01*
X134595000Y-65475000D02*
X137700000Y-68580000D01*
%TO.N,Net-(D1-K)*%
X133955000Y-63500000D02*
X131415000Y-66040000D01*
X131415000Y-66040000D02*
X131415000Y-76200000D01*
X132080000Y-55880000D02*
X132080000Y-61625000D01*
X132080000Y-61625000D02*
X133955000Y-63500000D01*
X132080000Y-41910000D02*
X132080000Y-55880000D01*
%TO.N,Net-(J1-Pin_1)*%
X132080000Y-40640000D02*
X143565000Y-52125000D01*
X143565000Y-52125000D02*
X143565000Y-59555000D01*
X143565000Y-59555000D02*
X142240000Y-60880000D01*
%TO.N,Net-(J2-Pin_5)*%
X142240000Y-43180000D02*
X156210000Y-43180000D01*
X156210000Y-43180000D02*
X160020000Y-46990000D01*
%TD*%
M02*
